<?xml version="1.0" encoding="utf-8"?>
<!-- Generator: Adobe Illustrator 27.7.0, SVG Export Plug-In . SVG Version: 6.00 Build 0)  -->
<svg version="1.1" id="Capa_1" xmlns="http://www.w3.org/2000/svg" xmlns:xlink="http://www.w3.org/1999/xlink" x="0px" y="0px"
	 viewBox="0 0 524.87 359.06" style="enable-background:new 0 0 524.87 359.06;" xml:space="preserve">
<style type="text/css">
	.st0{fill:#6E42A8;}
</style>
<g>
	<g>
		<g>
			<path class="st0" d="M8.95,170.18c1.8-2.75,4.36-3.76,7.61-3.6c6.08,0.29,12.18-0.42,18.25,0.5c4.04,0.62,7.82,1.98,11.3,4.09
				c2.02,1.23,2.62,3.43,1.62,5.33c-0.99,1.87-3.27,2.73-5.29,1.57c-5.22-2.99-10.84-3.65-16.7-3.39c-2.38,0.1-4.78,0.02-7.16,0.02
				c-1.07,0-2.03,0.14-2.02,1.54c0.07,5.83-0.52,11.71,0.94,17.46c2.81,11.07,12.55,18.72,23.98,18.87c2.22,0.03,4.43,0,6.64,0
				c0.28-1.1-0.57-1.42-1.03-1.89c-3.59-3.63-7.21-7.23-10.81-10.85c-0.58-0.58-1.2-1.16-1.61-1.86c-1.09-1.85-0.96-3.64,0.7-5.13
				c1.6-1.44,3.59-1.41,5.34,0.28c4.03,3.89,7.94,7.9,11.93,11.83c0.56,0.55,0.95,1.34,2.02,1.51c0.33-5.9,0.33-11.69-2.22-17.16
				c-0.8-1.72-0.75-3.35,0.58-4.82c1.05-1.16,2.4-1.39,3.85-1.08c1.63,0.35,2.39,1.63,3.02,3.01c2.16,4.74,2.83,9.77,2.93,14.91
				c0.06,3.46,0.13,6.92-0.03,10.37c-0.11,2.4,0.46,4.29,2.38,5.86c1.25,1.01,2.24,2.35,3.41,3.6c0.94-1.13,0.62-2.07,0.63-2.92
				c0.02-21.49-0.01-42.99,0.05-64.48c0.01-2.14-0.52-3.78-2.16-5.2c-1.74-1.51-3.3-3.21-4.91-4.87
				c-9.69-9.96-9.96-24.46-0.58-34.76c2.27-2.49,4.69-4.86,7.15-7.17c3.01-2.84,6.25-2.82,9.17,0.1c3.08,3.08,6.43,5.93,9.05,9.44
				c7.1,9.52,6.32,22.93-1.83,31.57c-2.09,2.22-4.26,4.36-6.45,6.48c-0.95,0.92-1.42,1.9-1.42,3.25
				c0.03,14.99,0.02,29.97,0.03,44.96c0,0.32,0.07,0.63,0.19,1.52c3.06-3.38,7.23-5.26,6.54-10.73c-0.42-3.3-0.35-6.73,0.28-10.09
				c2.28-12.15,12.16-20.5,24.5-20.6c3.29-0.03,6.59-0.07,9.88,0.03c3.41,0.1,5.87,2.33,5.94,5.71c0.1,4.6,0.42,9.21-0.3,13.8
				c-1.89,12.14-11.96,20.97-24.27,21.21c-2.88,0.06-5.77,0.07-8.65-0.01c-1.43-0.04-2.49,0.45-3.48,1.47
				c-3.04,3.13-6.14,6.2-9.25,9.27c-0.86,0.85-1.41,1.72-1.4,3c0.03,17.46,0.02,34.92,0.03,52.37c0,0.23,0.1,0.46,0.26,1.18
				c2.97-3.31,7.15-5.2,6.45-10.66c-0.42-3.29-0.35-6.73,0.28-10.09c2.27-12.14,12.17-20.49,24.51-20.59
				c3.29-0.03,6.59-0.07,9.88,0.03c3.41,0.1,5.86,2.33,5.93,5.72c0.1,4.6,0.41,9.21-0.3,13.8c-1.88,12.04-11.85,20.88-24.03,21.19
				c-2.88,0.07-5.77,0.07-8.65,0c-1.5-0.04-2.66,0.37-3.73,1.48c-3.03,3.14-6.13,6.21-9.25,9.26c-0.95,0.93-1.4,1.91-1.39,3.26
				c0.05,6.34,0.04,12.68,0.01,19.02c-0.01,1.42,0.25,2.26,1.98,2.38c12.57,0.88,22.46,6.93,30.52,16.25
				c1.37,1.58,2.56,2.07,4.63,1.71c6.91-1.19,14.01,2.99,17.2,9.8c0.41,0.89,0.4,2.38,1.91,2.18c1.24-0.17,1.15-1.46,1.43-2.35
				c3.23-10.05,9.42-17.61,18.82-22.48c1.58-0.82,3.13-0.99,4.62,0.19c1.3,1.03,1.68,2.39,1.4,3.97c-0.23,1.33-1.11,2.19-2.24,2.78
				c-8.49,4.45-13.6,11.41-15.76,20.71c-0.88,3.77-3.29,5.44-7.49,5.36c-3.11-0.06-5.45,0.97-6.84,3.84
				c-0.62,1.28-0.47,2.07,1.2,1.94c0.41-0.03,0.82,0,1.23,0c36.32,0,72.63,0,108.95-0.02c0.91,0,2.25,0.55,2.66-0.51
				c0.35-0.9-0.68-1.76-1.3-2.52c-2.04-2.49-4.71-3.38-7.89-3.24c-5.92,0.27-7.15-0.59-9.21-5.98c-1.72-4.5-5.69-6.79-10.49-5.49
				c-4.04,1.09-6.72-0.2-9.2-3.33c-7.56-9.54-17.09-15.28-29.71-14.81c-3.05,0.11-4.9-1.53-4.89-4c0-2.45,1.78-3.93,4.91-4.04
				c10.52-0.39,19.69,3.16,27.86,9.6c0.5,0.4,1,0.8,1.88,1.5c0-4.3,0.02-8.2-0.01-12.1c-0.01-0.8-0.67-1.29-1.19-1.81
				c-3.14-3.15-6.32-6.26-9.41-9.45c-1.01-1.05-2.13-1.34-3.52-1.37c-6-0.14-12.01,0.4-18.01-0.41c-14.91-2-27.07-15.03-28.16-30.06
				c-0.39-5.35-0.27-10.7-0.23-16.04c0.04-5.42,2.34-7.63,7.8-7.51c6.81,0.15,13.67-0.71,20.43,0.86
				c15.25,3.56,25.7,16.65,25.75,32.34c0.01,4.12,0.1,8.24-0.04,12.35c-0.06,1.99,0.55,3.43,2.01,4.75c1.43,1.3,2.65,2.83,4.05,4.35
				c0.87-1.22,0.61-2.06,0.61-2.84c0.02-19.35-0.01-38.7,0.05-58.05c0.01-1.98-0.6-3.39-2-4.76c-2.66-2.57-5.45-5.04-7.67-8.03
				c-6.95-9.33-6.37-22.6,1.48-31.22c2.49-2.74,5.15-5.33,7.83-7.89c2.79-2.66,5.99-2.64,8.79,0.04c2.62,2.5,5.21,5.04,7.66,7.71
				c8.6,9.37,8.58,23.92-0.02,33.31c-2.11,2.31-4.36,4.49-6.6,6.67c-0.95,0.92-1.42,1.91-1.41,3.26
				c0.03,12.68,0.02,25.36,0.02,38.04c0,0.32,0.07,0.65,0.17,1.56c2.94-3.36,7.14-5.07,6.57-10.44c-0.38-3.56-0.42-7.23,0.3-10.83
				c2.34-11.75,12.22-20.02,24.13-20.14c3.29-0.03,6.59-0.05,9.88,0.01c3.48,0.07,6,2.06,6.2,5.46c0.31,5.33,0.62,10.71-0.61,15.98
				c-2.61,11.22-12.35,19.08-23.89,19.3c-2.88,0.06-5.77,0.07-8.65,0c-1.43-0.03-2.49,0.44-3.48,1.46c-2.98,3.07-6,6.12-9.09,9.08
				c-1.18,1.13-1.58,2.36-1.57,3.94c0.04,12.27,0.04,24.54-0.02,36.81c-0.01,1.81,0.27,2.55,2.43,2.47
				c7.41-0.27,12.79,3.13,16.01,9.78c0.66,1.37,1.39,1.95,2.96,1.97c7.88,0.14,13.94,4.39,16.51,11.78c0.71,2.03,1.7,2.76,3.73,2.54
				c1.22-0.13,2.47-0.03,3.7-0.02c3.06,0.02,4.72,1.06,5.11,3.2c0.39,2.2-0.64,3.61-3.55,4.85c-82.35,0-164.71-0.01-247.06,0.06
				c-2.1,0-2.82-0.45-2.49-2.54c0.17-1.12,0.03-2.3,0.03-3.45c2-2.76,4.96-2.23,7.69-2.07c2.43,0.13,3.53-0.52,4.25-3.08
				c1.75-6.17,6.03-9.93,12.49-10.69c1.81-0.21,2.51-0.86,3.01-2.5c2.23-7.35,6.25-13.54,12.28-18.39
				c4.03-3.24,8.58-5.47,13.47-7.08c0.58-0.19,1.97,0.05,1.44-1.38c-0.59-1.58-4.31-4.08-6.04-4.09c-3.62-0.02-7.24,0.02-10.86-0.02
				c-13.71-0.12-25.48-9.54-28.52-22.93c-1.44-6.33-0.99-12.78-0.66-19.18c0.19-3.63,2.64-5.54,6.29-5.59
				c4.03-0.05,8.07-0.03,12.1-0.01c13.83,0.06,25.44,9.32,28.54,22.8c1.25,5.43,0.94,10.98,0.78,16.47
				c-0.09,3.01,1.48,4.6,3.52,6.15c0.6-0.48,0.45-1.01,0.45-1.47c0.01-19.59,0-39.18,0.03-58.76c0-1.43-0.47-2.49-1.48-3.48
				c-3.06-2.99-6.1-6.01-9.07-9.08c-1.06-1.09-2.19-1.56-3.71-1.53c-4.53,0.06-9.06,0.14-13.58-0.01
				c-8.36-0.27-15.71-3.14-21.94-8.84c-5.62-5.15-8.76-11.62-10.48-18.91C8.95,185.33,8.95,177.75,8.95,170.18z M73.45,344.45
				c14.24,0,28.48-0.02,42.72,0.03c1.71,0.01,2.67-0.34,3.04-2.28c0.56-2.96,2.01-5.62,4.32-7.6c1.4-1.2,1.24-2.27,0.5-3.64
				c-2.04-3.79-5.75-5.32-10.57-4.16c-2.68,0.64-5.09,0.42-7.06-1.64c-1.02-1.07-1.84-2.32-2.81-3.44
				c-9.1-10.4-20.32-15.15-34.15-12.5c-12.91,2.47-22.13,9.36-25.77,22.51c-1.55,5.6-2.89,6.78-8.76,6.97
				c-2.31,0.07-4.17,0.89-5.45,2.83c-0.48,0.73-1.26,1.54-0.76,2.45c0.46,0.85,1.5,0.47,2.28,0.47
				C45.13,344.45,59.29,344.45,73.45,344.45z M189.12,273.4c0-2.7,0.04-4.65-0.01-6.6c-0.28-13.16-8.22-23.06-20.76-25.49
				c-5.26-1.02-10.66-0.31-16-0.36c-1.41-0.01-1.44,1.06-1.44,2.1c0,3.54-0.06,7.07,0.01,10.61c0.32,15.13,12.93,27.89,32.56,24.65
				c-1.4-1.14-2.47-1.89-3.39-2.79c-3.57-3.52-7.14-7.05-10.62-10.66c-1.65-1.71-1.58-4.01-0.08-5.54c1.58-1.61,3.64-1.66,5.53-0.09
				c0.69,0.58,1.31,1.25,1.95,1.89C180.76,265.01,184.64,268.91,189.12,273.4z M56.64,283.27c0.19-0.11,0.38-0.22,0.57-0.33
				c0-1.47,0.02-2.95,0-4.42c-0.16-8.85-5.62-16.65-13.92-19.71c-5.38-1.98-11.02-1.44-16.6-1.43c-1.27,0-1.3,1.01-1.31,1.95
				c0,2.8-0.01,5.59,0,8.39c0.01,6.64,2.54,12.16,7.56,16.48c5.16,4.44,11.19,5.61,18.16,4.72c-0.85-0.9-1.39-1.5-1.96-2.08
				c-2.84-2.86-5.73-5.66-8.52-8.57c-1.79-1.86-1.81-4.12-0.26-5.74c1.54-1.6,3.84-1.58,5.73,0.08c0.62,0.54,1.18,1.14,1.76,1.73
				C50.78,277.32,53.71,280.3,56.64,283.27z M211.58,212.23c7.05-5.24,8.5-15.66,3.54-22.7c-1.77-2.51-4.14-4.46-6.19-6.7
				c-1.06-1.16-1.83-1-2.81,0.07c-1.45,1.58-3.05,3.01-4.5,4.58c-4.95,5.37-6.04,12.82-2.8,19.25c1.05,2.08,2.4,3.94,4.71,5.61
				c0-3.26-0.02-5.97,0.01-8.68c0.01-1.62,0.36-3.13,1.81-4.11c2.71-1.83,6,0.04,6.2,3.65
				C211.71,206.06,211.58,208.94,211.58,212.23z M231.84,256.23c9.74,1.35,18.47-5.76,19.04-14.85c0.15-2.46,0.01-4.94,0.07-7.41
				c0.03-1.49-0.66-2.08-2.09-2.05c-2.22,0.04-4.45,0.01-6.67,0.05c-5.43,0.09-9.63,2.6-12.81,6.84c-2.58,3.45-3.49,7.4-3.18,12.44
				c2.49-2.58,4.43-4.7,6.48-6.71c2.09-2.05,4.45-2.15,6.1-0.4c1.56,1.66,1.42,3.99-0.48,5.92
				C236.33,252.03,234.26,253.91,231.84,256.23z M69.19,139.15c0-2.98-0.03-5.51,0.01-8.04c0.05-3.34,1.69-5.43,4.16-5.36
				c2.49,0.07,3.88,1.93,3.9,5.27c0.02,2.59,0,5.19,0,7.74c0.91,0.13,1.17-0.36,1.5-0.68c6.5-6.37,6.81-16.47,0.68-23.39
				c-1.52-1.72-3.27-3.24-4.82-4.94c-0.97-1.06-1.7-0.95-2.62,0.03c-1.74,1.86-3.66,3.56-5.34,5.47
				C60.66,122.05,61.69,133.33,69.19,139.15z M92.44,184.64c2.2-2.37,3.92-4.34,5.77-6.19c2.23-2.23,4.52-2.37,6.25-0.53
				c1.58,1.67,1.38,4.09-0.69,6.09c-1.97,1.91-4.1,3.67-6.15,5.49c0.22,0.26,0.45,0.52,0.67,0.77c5.54,0.49,10.2-1.37,14.04-5.44
				c4.87-5.15,4.47-11.55,4.14-17.9c-0.06-1.21-1.16-1.23-2.08-1.22c-2.71,0.02-5.43-0.08-8.13,0.15
				C97.7,166.61,90.67,175.64,92.44,184.64z M97.9,256.36c6.07,1.14,10.77-0.85,14.62-5.03c4.66-5.07,4.22-11.31,4-17.48
				c-0.04-1.2-0.95-1.42-1.92-1.42c-2.3,0-4.6-0.05-6.9,0.05c-7.47,0.31-13.86,5.65-15.42,12.95c-0.36,1.66-0.7,3.44,0.28,5.61
				c2.11-2.2,3.92-4.2,5.86-6.08c2.03-1.98,4.21-2.09,5.9-0.47c1.68,1.6,1.57,4.1-0.4,6.1C101.97,252.56,99.91,254.44,97.9,256.36z"
				/>
		</g>
	</g>
	<g>
		<g>
			<path class="st0" d="M275.84,170.01c1.27-2.42,3.36-3.34,5.99-3.31c14.8,0.17,28.65-3.83,42.12-9.56c5.88-2.5,11.75-5.04,18-6.57
				c8.41-2.06,16.43-1.17,24.03,2.9c1.86,1,2.57,0.66,3.51-1.16c6.16-11.96,15.3-20.96,27.36-26.96c0.63-0.31,1.25-0.64,1.86-0.98
				c0.11-0.06,0.15-0.25,0.32-0.55c-2.16-1.19-4.39-2.27-6.47-3.59c-18.97-12.06-29.16-29.2-29.73-51.82
				c-0.09-3.62,2.12-5.76,5.63-5.65c13.83,0.44,26.32,4.68,37.22,13.32c4.68,3.71,8.71,8.03,12.13,12.93
				c0.26,0.37,0.56,0.7,1.21,1.51c0-2.75,0-4.98,0-7.2c0-7.49-0.05-14.98,0.03-22.48c0.02-1.83-0.52-2.49-2.43-2.79
				c-22.41-3.47-39.63-23.12-39.8-45.12c-0.02-3.15,1.06-5.25,3.95-6.43c0.94,0,1.87,0,2.81,0c0.38,0.09,0.75,0.24,1.13,0.27
				c16.75,1.27,29.29,9.31,37.87,23.62c1.05,1.75,1.54,1.71,2.54-0.02c5.73-9.89,13.98-16.83,24.67-20.91
				c4.64-1.77,9.49-2.43,14.37-2.97c0.94,0,1.87,0,2.81,0c2.89,1.18,3.97,3.29,3.95,6.43c-0.18,22.14-17.42,41.68-40.07,45.17
				c-1.34,0.21-2.16,0.48-2.15,2.07c0.04,9.91,0.02,19.82,0.02,30.32c1.27-1.66,2.21-2.93,3.2-4.16
				c11.43-14.2,26.16-22.15,44.42-23.3c7.68-0.48,8.92,0.64,8.52,8.28c-0.73,13.97-5.93,26.2-15.08,36.77
				c-2.93,3.38-6.23,6.36-9.82,9.01c-3.58,2.65-7.44,4.84-11.57,6.72c0.71,0.92,1.67,1.11,2.48,1.51
				c10.02,4.99,18.15,12.12,24.2,21.52c1.2,1.86,1.9,1.72,3.18,0.23c1.62-1.9,3.34-3.72,5.14-5.45c5.46-5.27,11.94-7.02,19.18-4.81
				c7,2.13,11.31,7.09,12.91,14.18c1.12,4.99,0.52,9.98-2.59,14.11c-16.53,21.94-32.48,44.38-52.55,63.38
				c-8.03,7.6-17.01,13.71-27.99,16.33c-8.88,2.12-17.82,1.75-26.74,0.5c-8.49-1.19-16.95-2.65-25.42-4
				c-0.77-0.12-1.54-0.27-2.29-0.48c-2.38-0.67-4.01-3-3.71-5.28c0.33-2.54,2.39-4.54,5.01-4.26c4.57,0.5,9.1,1.35,13.63,2.09
				c7.7,1.26,15.4,2.5,23.19,2.98c13.45,0.82,24.88-3.83,34.89-12.67c12.24-10.81,22.45-23.43,32.52-36.18
				c7.02-8.88,13.81-17.94,20.64-26.97c2.37-3.14,2.77-6.63,0.77-10.09c-1.86-3.23-4.8-4.86-8.58-4.63
				c-2.64,0.16-4.66,1.54-6.45,3.42c-10.72,11.25-21.46,22.47-32.19,33.7c-4.96,5.19-9.98,10.34-14.91,15.56
				c-4.11,4.35-9.12,6.34-15.06,6.32c-17.26-0.04-34.51-0.01-51.77-0.03c-1.01,0-2.06-0.01-3.01-0.28
				c-2.18-0.62-3.39-2.13-3.48-4.44c-0.08-2.23,1.23-4.15,3.32-4.86c1.28-0.43,2.61-0.41,3.94-0.41c15.62,0,31.23,0.02,46.85-0.01
				c4.5-0.01,7.76-2.28,8.99-6.11c1.93-5.97-2.35-11.91-8.74-11.96c-10.15-0.08-20.3-0.2-30.45,0.03c-8.91,0.2-16.47-2.74-23.14-8.5
				c-4.83-4.17-10.08-7.63-16.6-8.64c-4.21-0.65-8.24,0.11-12.21,1.35c-5.45,1.7-10.65,4.05-15.91,6.23
				c-12.11,5.04-24.63,8.46-37.77,9.32c-1.83,0.12-2.35,0.81-2.35,2.59c0.06,13.82,0.06,27.64,0.01,41.46
				c-0.01,1.66,0.48,2.5,2.22,2.47c0.93-0.02,1.87,0.2,2.8,0.19c12.81-0.13,25.58,0.72,38.35,1.54c2.96,0.19,5.9,0.53,8.84,0.87
				c2.9,0.34,4.8,2.52,4.65,5.19c-0.15,2.75-2.4,4.7-5.48,4.52c-5.76-0.34-11.51-0.79-17.27-1.18c-3.89-0.26-7.78-0.62-11.67-0.73
				c-8.66-0.24-17.32-0.41-25.98-0.49c-2.56-0.02-4.57-0.79-5.95-2.98C275.84,209.99,275.84,190,275.84,170.01z M442.92,183.47
				c1.05-0.23,1.48-1.04,2.05-1.63c7.41-7.72,14.72-15.53,22.24-23.13c1.82-1.84,1.86-3.12,0.52-5.14
				c-11.74-17.7-28.12-26.32-49.34-24.16c-18.94,1.93-32.52,12.13-41,29.16c-0.72,1.43-0.6,2.34,0.72,3.36
				c3.89,3,8.12,4.83,13.14,4.79c10.38-0.07,20.77-0.05,31.15-0.01c10.56,0.04,17.37,5.32,20.1,15.46
				C442.61,182.61,442.78,183.03,442.92,183.47z M417.62,118.66c0.8,0.25,1.07-0.5,0.89-1.66c-0.11-0.69-0.26-1.38-0.37-2.07
				c-3.26-20.98-22.02-39.21-42.9-41.71c-1.72-0.21-2.38,0.17-2.08,2.14c1.49,9.67,5.39,18.22,11.73,25.61
				C393.37,110.85,404.13,116.65,417.62,118.66z M430.49,118.53c0.85-0.1,1.71-0.16,2.55-0.31c21.2-3.81,37.97-20.89,41.38-42.13
				c0.49-3.05,0.31-3.2-2.76-2.68c-12.67,2.18-23.1,8.25-31.27,18.14c-6.06,7.33-9.62,15.8-11.07,25.17
				C429.18,117.62,428.87,118.74,430.49,118.53z M418.25,47.1c-0.08-0.59-0.11-0.98-0.18-1.36c-2.56-13.57-14.66-25.68-28.33-28.35
				c-2.73-0.53-2.83-0.48-2.16,2.31c2.15,8.99,6.89,16.31,14.32,21.83c4.25,3.16,9.03,5.24,14.19,6.38
				C416.9,48.08,418.24,48.75,418.25,47.1z M431.14,48.02c3.69-0.72,7.42-2.06,10.9-4.06c9.66-5.55,15.68-13.8,18.24-24.63
				c0.4-1.71,0.4-2.57-1.92-2.06c-8.74,1.92-15.86,6.38-21.45,13.28c-3.64,4.49-6.03,9.64-7.2,15.31
				C429.53,46.77,428.82,48.25,431.14,48.02z"/>
			<path class="st0" d="M363.13,232.71c-0.01,2.76-2.19,4.91-4.93,4.85c-2.66-0.06-4.71-2.14-4.73-4.81c-0.02-2.73,2.15-5,4.81-5.02
				C360.93,227.73,363.14,229.99,363.13,232.71z"/>
		</g>
	</g>
</g>
</svg>
