<?xml version="1.0" encoding="utf-8"?>
<!-- Generator: Adobe Illustrator 27.7.0, SVG Export Plug-In . SVG Version: 6.00 Build 0)  -->
<svg version="1.1" id="Capa_1" xmlns="http://www.w3.org/2000/svg" xmlns:xlink="http://www.w3.org/1999/xlink" x="0px" y="0px"
	 viewBox="0 0 60 60" style="enable-background:new 0 0 60 60;" xml:space="preserve">
<style type="text/css">
	.st0{fill:#522580;}
	.st1{fill:#FFFFFF;}
</style>
<g>
	<path class="st0" d="M55.15,29.75c0-14.07-11.41-25.48-25.48-25.48S4.19,15.68,4.19,29.75c0,12.72,9.32,23.26,21.5,25.17v-17.8
		h-6.47v-7.36h6.47v-5.61c0-6.38,3.8-9.91,9.62-9.91c2.79,0,5.7,0.5,5.7,0.5V21H37.8c-3.16,0-4.15,1.96-4.15,3.98v4.78h7.07
		l-1.13,7.36h-5.94v17.8C45.83,53.01,55.15,42.47,55.15,29.75z"/>
	<path class="st1" d="M39.59,37.12l1.13-7.36h-7.07v-4.78c0-2.01,0.99-3.98,4.15-3.98h3.21v-6.27c0,0-2.92-0.5-5.7-0.5
		c-5.82,0-9.62,3.53-9.62,9.91v5.61h-6.47v7.36h6.47v17.8c1.3,0.2,2.63,0.31,3.98,0.31c1.35,0,2.68-0.11,3.98-0.31v-17.8H39.59z"/>
</g>
</svg>
