<?xml version="1.0" encoding="utf-8"?>
<!-- Generator: Adobe Illustrator 27.7.0, SVG Export Plug-In . SVG Version: 6.00 Build 0)  -->
<svg version="1.1" id="Capa_1" xmlns="http://www.w3.org/2000/svg" xmlns:xlink="http://www.w3.org/1999/xlink" x="0px" y="0px"
	 viewBox="0 0 171.66 168.87" style="enable-background:new 0 0 171.66 168.87;" xml:space="preserve">
<style type="text/css">
	.st0{fill:#1F9E5C;}
	.st1{fill-rule:evenodd;clip-rule:evenodd;fill:#1F9E5C;}
</style>
<g>
	<g>
		<g>
			<g>
				<path class="st0" d="M15.05,155.39l10.17-37.96c-5.76-10.39-8.79-22.04-8.79-33.86c0-38.65,31.44-70.09,70.09-70.09
					c38.65,0,70.09,31.44,70.09,70.09c0,38.65-31.44,70.09-70.09,70.09c-11.6,0-23.06-2.93-33.32-8.49L15.05,155.39z M55.1,130.94
					l2.4,1.43c8.82,5.26,18.86,8.04,29.02,8.04c31.34,0,56.84-25.5,56.84-56.84c0-31.34-25.5-56.84-56.84-56.84
					s-56.84,25.5-56.84,56.84c0,10.35,2.88,20.54,8.31,29.47l1.47,2.42l-5.68,21.19L55.1,130.94z"/>
			</g>
		</g>
		<path class="st1" d="M112.6,93.32c-2.89-1.73-6.64-3.65-10.04-2.26c-2.61,1.07-4.27,5.15-5.96,7.23c-0.87,1.07-1.9,1.24-3.23,0.7
			c-9.79-3.9-17.29-10.43-22.69-19.44c-0.91-1.4-0.75-2.5,0.35-3.8c1.63-1.92,3.68-4.1,4.12-6.69c0.44-2.59-0.77-5.62-1.84-7.92
			c-1.37-2.95-2.9-7.15-5.85-8.81c-2.71-1.53-6.29-0.67-8.7,1.29c-4.17,3.4-6.18,8.72-6.12,13.99c0.02,1.5,0.2,2.99,0.55,4.44
			c0.84,3.48,2.45,6.73,4.26,9.82c1.36,2.33,2.85,4.59,4.45,6.76c5.24,7.11,11.75,13.29,19.29,17.91c3.77,2.31,7.83,4.33,12.03,5.72
			c4.71,1.56,8.91,3.18,14,2.21c5.33-1.01,10.58-4.31,12.7-9.45c0.63-1.52,0.94-3.21,0.59-4.82
			C119.78,96.9,115.28,94.92,112.6,93.32z"/>
	</g>
</g>
</svg>
