<?xml version="1.0" encoding="utf-8"?>
<!-- Generator: Adobe Illustrator 27.7.0, SVG Export Plug-In . SVG Version: 6.00 Build 0)  -->
<svg version="1.1" id="Capa_1" xmlns="http://www.w3.org/2000/svg" xmlns:xlink="http://www.w3.org/1999/xlink" x="0px" y="0px"
	 viewBox="0 0 300 300" style="enable-background:new 0 0 300 300;" xml:space="preserve">
<style type="text/css">
	.st0{fill:#6E42A8;}
</style>
<path class="st0" d="M87.32,233.57c-8.71,0-16.1-3.05-22.2-9.14c-6.09-6.09-9.14-13.49-9.14-22.2H35.09V87.32
	c0-5.75,2.05-10.66,6.14-14.76c4.09-4.09,9.01-6.14,14.76-6.14h146.25v41.78h31.34L264.91,150v52.23h-20.89
	c0,8.71-3.05,16.1-9.14,22.2c-6.09,6.09-13.49,9.14-22.2,9.14s-16.1-3.05-22.2-9.14c-6.09-6.09-9.14-13.49-9.14-22.2h-62.68
	c0,8.71-3.05,16.1-9.14,22.2C103.43,230.52,96.03,233.57,87.32,233.57z M87.32,212.68c2.96,0,5.44-1,7.44-3c2-2,3-4.48,3-7.44
	c0-2.96-1-5.44-3-7.44c-2-2-4.48-3-7.44-3c-2.96,0-5.44,1-7.44,3s-3,4.48-3,7.44c0,2.96,1,5.44,3,7.44
	C81.88,211.68,84.36,212.68,87.32,212.68z M55.98,181.34h8.36c2.96-3.13,6.35-5.66,10.19-7.57c3.83-1.92,8.1-2.87,12.8-2.87
	s8.97,0.96,12.8,2.87c3.83,1.92,7.23,4.44,10.19,7.57h71.03V87.32H55.98V181.34z M212.68,212.68c2.96,0,5.44-1,7.44-3
	c2-2,3-4.48,3-7.44c0-2.96-1-5.44-3-7.44c-2-2-4.48-3-7.44-3s-5.44,1-7.44,3c-2,2-3,4.48-3,7.44c0,2.96,1,5.44,3,7.44
	C207.24,211.68,209.72,212.68,212.68,212.68z M202.23,160.45h44.4l-23.5-31.34h-20.89V160.45z"/>
</svg>
