<?xml version="1.0" encoding="utf-8"?>
<!-- Generator: Adobe Illustrator 27.7.0, SVG Export Plug-In . SVG Version: 6.00 Build 0)  -->
<svg version="1.1" id="Capa_1" xmlns="http://www.w3.org/2000/svg" xmlns:xlink="http://www.w3.org/1999/xlink" x="0px" y="0px"
	 viewBox="0 0 60 60" style="enable-background:new 0 0 60 60;" xml:space="preserve">
<style type="text/css">
	.st0{fill:#522580;}
	.st1{fill:#FFFFFF;}
</style>
<g>
	<ellipse transform="matrix(0.9239 -0.3827 0.3827 0.9239 -9.1969 13.7641)" class="st0" cx="30" cy="30" rx="25.48" ry="25.48"/>
	<g>
		<g id="XMLID_00000121994339839782190940000015049248817506118536_">
			<g>
				<path class="st1" d="M45.08,31.71c0.06,1.51,0.1,3.03,0.05,4.55c-0.08,2.45-0.03,4.9-0.04,7.36c0,0.34-0.11,0.46-0.46,0.46
					c-1.75-0.01-3.51-0.02-5.27,0c-0.38,0-0.46-0.15-0.46-0.49c0.01-3.35,0.01-6.7,0-10.05c0-0.94-0.08-1.87-0.4-2.76
					c-0.44-1.21-1.34-1.78-2.58-1.88c-0.49-0.04-0.97,0-1.45,0.12c-1.43,0.35-2.31,1.44-2.55,3.13c-0.1,0.72-0.16,1.44-0.15,2.17
					c0,3.07,0,6.14,0,9.22c0,0.55,0,0.55-0.55,0.55c-1.67,0-3.35,0-5.02,0c-0.59,0-0.6,0-0.6-0.58c0-3.15,0-6.3,0-9.45
					c0-3.16,0-6.33,0-9.5c0-0.55,0.01-0.56,0.55-0.56c1.62,0,3.24,0,4.87,0c0.5,0,0.51,0.02,0.52,0.51c0,0.58,0,1.16,0,1.74
					c0,0.14-0.07,0.33,0.11,0.38c0.14,0.04,0.19-0.15,0.27-0.25c1.01-1.46,2.37-2.47,4.13-2.76c2.27-0.38,4.49-0.2,6.43,1.22
					c1.32,0.96,1.92,2.39,2.26,3.92C44.94,29.71,45.04,30.7,45.08,31.71z"/>
				<path class="st1" d="M22.04,17.51c0.09,1.71-1.33,3.57-3.58,3.59c-1.97,0.02-3.61-1.66-3.6-3.61c0-1.99,1.61-3.57,3.62-3.56
					C20.51,13.93,22.04,15.46,22.04,17.51z"/>
				<path class="st1" d="M21.55,34.03c0,3.15,0,6.3,0,9.45c0,0.58,0,0.58-0.59,0.58c-1.69,0-3.38-0.01-5.06,0.01
					c-0.4,0-0.52-0.12-0.52-0.52c0.01-6.36,0.01-12.71,0.01-19.07c0-0.49,0.02-0.51,0.52-0.51c1.71,0,3.43,0,5.15,0
					c0.49,0,0.51,0.02,0.51,0.52C21.56,27.67,21.55,30.85,21.55,34.03z"/>
			</g>
		</g>
	</g>
</g>
</svg>
