<?xml version="1.0" encoding="utf-8"?>
<!-- Generator: Adobe Illustrator 27.7.0, SVG Export Plug-In . SVG Version: 6.00 Build 0)  -->
<svg version="1.1" id="Capa_1" xmlns="http://www.w3.org/2000/svg" xmlns:xlink="http://www.w3.org/1999/xlink" x="0px" y="0px"
	 viewBox="0 0 300 300" style="enable-background:new 0 0 300 300;" xml:space="preserve">
<style type="text/css">
	.st0{fill:#6E42A8;}
</style>
<path class="st0" d="M79.29,244.61l-1.49-12.7l-1.99-1c-0.66-0.33-1.58-0.91-2.74-1.74l-11.95,4.98l-10.96-18.92l10.21-7.72v-5.23
	l-10.21-7.97l10.96-18.92l11.95,4.98c0.83-0.5,1.62-1,2.37-1.49s1.54-0.91,2.37-1.24l1.49-12.7h21.91l1.49,12.7l1,0.5l1,0.5
	c0.33,0.17,0.75,0.41,1.24,0.75l1.49,1l11.95-4.98l10.96,18.92l-10.21,7.72v5.48l54.53-31.62l-11.2,19.67l2.99,2.24l-39.34,22.91
	l-7.72,13.45l-11.95-4.98c-0.83,0.5-1.62,1-2.37,1.49s-1.54,0.91-2.37,1.24l-1.49,12.7H79.29z M90.24,189.84
	c-4.15,0-7.68,1.45-10.58,4.36c-2.9,2.9-4.36,6.43-4.36,10.58s1.45,7.68,4.36,10.58c2.9,2.9,6.43,4.36,10.58,4.36
	s7.68-1.45,10.58-4.36c2.9-2.9,4.36-6.43,4.36-10.58s-1.45-7.68-4.36-10.58C97.92,191.29,94.39,189.84,90.24,189.84z M129.09,135.06
	l-1.49-12.7c-0.33-0.33-0.75-0.58-1.24-0.75c-0.5-0.17-0.91-0.41-1.24-0.75v54.78l-3.73-6.47l-11.2,4.73v-50.79l-9.96-17.43
	l9.96-7.72v-5.23l-10.21-7.97l10.96-18.92l11.95,4.98c0.83-0.5,1.62-1,2.37-1.49c0.75-0.5,1.54-0.91,2.37-1.24l1.49-12.7H151
	l1.49,12.7l1.99,1c0.66,0.33,1.58,0.91,2.74,1.74l11.95-4.98l10.96,18.92l-10.21,7.72v5.23l10.21,7.97l-10.96,18.92l-11.95-4.98
	c-0.83,0.5-1.62,1-2.37,1.49c-0.75,0.5-1.54,0.91-2.37,1.24l-1.49,12.7H129.09z M140.04,80.28c-4.15,0-7.68,1.45-10.58,4.36
	c-2.9,2.9-4.36,6.43-4.36,10.58s1.45,7.68,4.36,10.58c2.9,2.9,6.43,4.36,10.58,4.36s7.68-1.45,10.58-4.36
	c2.9-2.9,4.36-6.43,4.36-10.58s-1.45-7.68-4.36-10.58C147.72,81.74,144.19,80.28,140.04,80.28z M198.8,244.61l-1.49-12.7l-1.99-1
	c-0.66-0.33-1.58-0.91-2.74-1.74l-11.95,4.98l-10.96-18.92l10.21-7.72v-5.23l-10.21-7.72l10.96-19.17l11.95,4.98
	c0.5-0.33,0.83-0.54,1-0.62l3.73-1.87l-53.78-37.85h11.95l1-8.96l48.55,33.86h15.69l1.49,12.7l1,0.5l1,0.5
	c0.33,0.17,0.75,0.41,1.24,0.75l1.49,1l11.95-4.98l10.96,18.92l-10.21,7.72v5.23l10.21,7.97l-10.96,18.92l-11.95-4.98
	c-0.83,0.5-1.62,1-2.37,1.49s-1.54,0.91-2.37,1.24l-1.49,12.7H198.8z M209.76,189.84c-4.15,0-7.68,1.45-10.58,4.36
	c-2.9,2.9-4.36,6.43-4.36,10.58s1.45,7.68,4.36,10.58c2.9,2.9,6.43,4.36,10.58,4.36s7.68-1.45,10.58-4.36
	c2.9-2.9,4.36-6.43,4.36-10.58s-1.45-7.68-4.36-10.58C217.43,191.29,213.91,189.84,209.76,189.84z"/>
</svg>
