<?xml version="1.0" encoding="utf-8"?>
<!-- Generator: Adobe Illustrator 27.7.0, SVG Export Plug-In . SVG Version: 6.00 Build 0)  -->
<svg version="1.1" id="Capa_1" xmlns="http://www.w3.org/2000/svg" xmlns:xlink="http://www.w3.org/1999/xlink" x="0px" y="0px"
	 viewBox="0 0 116.11 196.64" style="enable-background:new 0 0 116.11 196.64;" xml:space="preserve">
<style type="text/css">
	.st0{fill:none;stroke:#29ABE2;stroke-width:10;stroke-miterlimit:10;}
	.st1{fill:#29ABE2;}
</style>
<g>
	<path class="st0" d="M90.17,179.83H25.94c-5.13,0-9.28-4.16-9.28-9.28V26.09c0-5.13,4.16-9.28,9.28-9.28h64.23
		c5.13,0,9.28,4.16,9.28,9.28v144.46C99.45,175.67,95.3,179.83,90.17,179.83z"/>
	<g>
		<path class="st1" d="M50.15,110.85c4.1,4.1,6.48,9.27,7.15,14.61c0.31,2.49,2.44,4.35,4.95,4.35h0c2.97,0,5.33-2.58,4.97-5.52
			c-0.92-7.51-4.25-14.77-10-20.52s-13.01-9.08-20.52-10c-2.95-0.36-5.52,2.01-5.52,4.97v0c0,2.51,1.86,4.64,4.35,4.95
			C40.88,104.37,46.06,106.75,50.15,110.85z"/>
		<path class="st1" d="M63.36,97.64c7.66,7.66,11.88,17.49,12.66,27.53c0.2,2.62,2.36,4.65,4.98,4.65h0c2.88,0,5.21-2.43,4.99-5.3
			c-0.93-12.38-6.11-24.5-15.56-33.95S48.86,75.94,36.48,75.01c-2.87-0.22-5.3,2.11-5.3,4.99v0c0,2.62,2.03,4.78,4.65,4.98
			C45.87,85.76,55.7,89.98,63.36,97.64z"/>
	</g>
</g>
</svg>
