<?xml version="1.0" encoding="utf-8"?>
<!-- Generator: Adobe Illustrator 27.7.0, SVG Export Plug-In . SVG Version: 6.00 Build 0)  -->
<svg version="1.1" id="Capa_1" xmlns="http://www.w3.org/2000/svg" xmlns:xlink="http://www.w3.org/1999/xlink" x="0px" y="0px"
	 viewBox="0 0 60 60" style="enable-background:new 0 0 60 60;" xml:space="preserve">
<style type="text/css">
	.st0{fill:#522580;}
	.st1{fill:#FFFFFF;}
</style>
<g>
	<circle class="st0" cx="30" cy="30" r="25.48"/>
	<g>
		<g>
			<path class="st1" d="M30,16.85c4.28,0,4.79,0.02,6.48,0.09c1.56,0.07,2.41,0.33,2.98,0.55c0.75,0.29,1.28,0.64,1.84,1.2
				c0.56,0.56,0.91,1.1,1.2,1.84c0.22,0.57,0.48,1.41,0.55,2.98c0.08,1.69,0.09,2.2,0.09,6.48s-0.02,4.79-0.09,6.48
				c-0.07,1.56-0.33,2.41-0.55,2.98c-0.29,0.75-0.64,1.28-1.2,1.84c-0.56,0.56-1.1,0.91-1.84,1.2c-0.57,0.22-1.41,0.48-2.98,0.55
				c-1.69,0.08-2.2,0.09-6.48,0.09c-4.28,0-4.79-0.02-6.48-0.09c-1.56-0.07-2.41-0.33-2.98-0.55c-0.75-0.29-1.28-0.64-1.84-1.2
				c-0.56-0.56-0.91-1.1-1.2-1.84c-0.22-0.57-0.48-1.41-0.55-2.98c-0.08-1.69-0.09-2.2-0.09-6.48s0.02-4.79,0.09-6.48
				c0.07-1.56,0.33-2.41,0.55-2.98c0.29-0.75,0.64-1.28,1.2-1.84c0.56-0.56,1.1-0.91,1.84-1.2c0.57-0.22,1.41-0.48,2.98-0.55
				C25.21,16.87,25.72,16.85,30,16.85 M30,13.96c-4.36,0-4.9,0.02-6.61,0.1c-1.71,0.08-2.87,0.35-3.89,0.75
				c-1.05,0.41-1.95,0.96-2.84,1.85c-0.89,0.89-1.44,1.79-1.85,2.84c-0.4,1.02-0.67,2.19-0.75,3.89c-0.08,1.71-0.1,2.26-0.1,6.61
				c0,4.36,0.02,4.9,0.1,6.61c0.08,1.71,0.35,2.87,0.75,3.89c0.41,1.05,0.96,1.95,1.85,2.84c0.89,0.89,1.79,1.44,2.84,1.85
				c1.02,0.4,2.19,0.67,3.89,0.75c1.71,0.08,2.26,0.1,6.61,0.1c4.36,0,4.9-0.02,6.61-0.1c1.71-0.08,2.87-0.35,3.89-0.75
				c1.05-0.41,1.95-0.96,2.84-1.85c0.89-0.89,1.44-1.79,1.85-2.84c0.4-1.02,0.67-2.19,0.75-3.89c0.08-1.71,0.1-2.26,0.1-6.61
				s-0.02-4.9-0.1-6.61c-0.08-1.71-0.35-2.87-0.75-3.89c-0.41-1.05-0.96-1.95-1.85-2.84c-0.89-0.89-1.79-1.44-2.84-1.85
				c-1.02-0.4-2.19-0.67-3.89-0.75C34.9,13.98,34.36,13.96,30,13.96L30,13.96z"/>
			<path class="st1" d="M30,21.76c-4.55,0-8.24,3.69-8.24,8.24s3.69,8.24,8.24,8.24c4.55,0,8.24-3.69,8.24-8.24
				S34.55,21.76,30,21.76z M30,35.35c-2.95,0-5.35-2.39-5.35-5.35s2.39-5.35,5.35-5.35s5.35,2.39,5.35,5.35S32.95,35.35,30,35.35z"
				/>
			<circle class="st1" cx="38.56" cy="21.44" r="1.92"/>
		</g>
	</g>
</g>
</svg>
